<svg xmlns="http://www.w3.org/2000/svg" version="1.1" xmlns:xlink="http://www.w3.org/1999/xlink" xmlns:svgjs="http://svgjs.dev/svgjs" width="1440" height="337" preserveAspectRatio="none" viewBox="0 0 1440 337"><g mask="url(&quot;#SvgjsMask1448&quot;)" fill="none"><rect width="1440" height="337" x="0" y="0" fill="rgba(46, 59, 72, 1)"></rect><g mask="url(&quot;#SvgjsMask1449&quot;)"><path d="M137.5 162.5L162.5 137.5L187.5 137.5L212.5 137.5L237.5 137.5M312.5 162.5L337.5 187.5L362.5 187.5M362.5 162.5L387.5 137.5L412.5 137.5M212.5 162.5L237.5 187.5L262.5 212.5L287.5 212.5M187.5 162.5L212.5 187.5L237.5 212.5M-12.5 162.5L12.5 162.5L37.5 162.5L62.5 162.5L87.5 162.5L112.5 162.5L137.5 162.5L162.5 162.5L187.5 162.5L212.5 162.5L237.5 162.5L262.5 162.5L287.5 162.5L312.5 162.5L337.5 162.5L362.5 162.5L387.5 162.5L412.5 162.5L437.5 162.5L462.5 162.5L487.5 162.5L512.5 162.5L537.5 162.5" stroke="rgba(19, 53, 212, 1)" stroke-width="4.17"></path><path d="M531.25 162.5 a6.25 6.25 0 1 0 12.5 0 a6.25 6.25 0 1 0 -12.5 0zM231.25 137.5 a6.25 6.25 0 1 0 12.5 0 a6.25 6.25 0 1 0 -12.5 0zM356.25 187.5 a6.25 6.25 0 1 0 12.5 0 a6.25 6.25 0 1 0 -12.5 0zM406.25 137.5 a6.25 6.25 0 1 0 12.5 0 a6.25 6.25 0 1 0 -12.5 0zM281.25 212.5 a6.25 6.25 0 1 0 12.5 0 a6.25 6.25 0 1 0 -12.5 0zM231.25 212.5 a6.25 6.25 0 1 0 12.5 0 a6.25 6.25 0 1 0 -12.5 0z" fill="rgba(19, 53, 212, 1)"></path><path d="M37.5 187.5L62.5 212.5L87.5 212.5L112.5 212.5L137.5 212.5M-12.5 187.5L12.5 187.5L37.5 187.5L62.5 187.5L87.5 187.5" stroke="rgba(246, 128, 10, 1)" stroke-width="4.17"></path><path d="M81.25 187.5 a6.25 6.25 0 1 0 12.5 0 a6.25 6.25 0 1 0 -12.5 0zM131.25 212.5 a6.25 6.25 0 1 0 12.5 0 a6.25 6.25 0 1 0 -12.5 0z" fill="rgba(246, 128, 10, 1)"></path><path d="M262.5 87.5L287.5 87.5M462.5 87.5L487.5 62.5L512.5 62.5L537.5 62.5L562.5 62.5L587.5 62.5M562.5 87.5L587.5 112.5L612.5 112.5L637.5 112.5L662.5 112.5M312.5 62.5L337.5 87.5L362.5 87.5L387.5 112.5L412.5 112.5L437.5 112.5L462.5 112.5L487.5 112.5M537.5 87.5L562.5 112.5L587.5 137.5L612.5 137.5L637.5 137.5M412.5 87.5L437.5 62.5L462.5 62.5M-12.5 137.5L12.5 112.5L37.5 112.5L62.5 112.5L87.5 112.5L112.5 112.5L137.5 112.5L162.5 112.5L187.5 112.5L212.5 112.5L237.5 112.5L262.5 87.5L287.5 62.5L312.5 62.5L337.5 62.5L362.5 62.5L387.5 87.5L412.5 87.5L437.5 87.5L462.5 87.5L487.5 87.5L512.5 87.5L537.5 87.5L562.5 87.5L587.5 87.5" stroke="rgba(246, 128, 10, 1)" stroke-width="4.17"></path><path d="M581.25 87.5 a6.25 6.25 0 1 0 12.5 0 a6.25 6.25 0 1 0 -12.5 0zM281.25 87.5 a6.25 6.25 0 1 0 12.5 0 a6.25 6.25 0 1 0 -12.5 0zM581.25 62.5 a6.25 6.25 0 1 0 12.5 0 a6.25 6.25 0 1 0 -12.5 0zM656.25 112.5 a6.25 6.25 0 1 0 12.5 0 a6.25 6.25 0 1 0 -12.5 0zM481.25 112.5 a6.25 6.25 0 1 0 12.5 0 a6.25 6.25 0 1 0 -12.5 0zM631.25 137.5 a6.25 6.25 0 1 0 12.5 0 a6.25 6.25 0 1 0 -12.5 0zM456.25 62.5 a6.25 6.25 0 1 0 12.5 0 a6.25 6.25 0 1 0 -12.5 0z" fill="rgba(246, 128, 10, 1)"></path><path d="M187.5 87.5L212.5 62.5M112.5 87.5L137.5 62.5M162.5 87.5L187.5 62.5M-12.5 112.5L12.5 87.5L37.5 87.5L62.5 87.5L87.5 87.5L112.5 87.5L137.5 87.5L162.5 87.5L187.5 87.5L212.5 87.5L237.5 87.5L262.5 62.5" stroke="rgba(19, 53, 212, 1)" stroke-width="4.17"></path><path d="M256.25 62.5 a6.25 6.25 0 1 0 12.5 0 a6.25 6.25 0 1 0 -12.5 0zM206.25 62.5 a6.25 6.25 0 1 0 12.5 0 a6.25 6.25 0 1 0 -12.5 0zM131.25 62.5 a6.25 6.25 0 1 0 12.5 0 a6.25 6.25 0 1 0 -12.5 0zM181.25 62.5 a6.25 6.25 0 1 0 12.5 0 a6.25 6.25 0 1 0 -12.5 0z" fill="rgba(19, 53, 212, 1)"></path><path d="M37.5 237.5L62.5 262.5L87.5 262.5M237.5 237.5L262.5 262.5L287.5 262.5L312.5 262.5L337.5 262.5L362.5 262.5M137.5 237.5L162.5 262.5L187.5 262.5L212.5 262.5M-12.5 237.5L12.5 237.5L37.5 237.5L62.5 237.5L87.5 237.5L112.5 237.5L137.5 237.5L162.5 237.5L187.5 237.5L212.5 237.5L237.5 237.5L262.5 237.5L287.5 237.5L312.5 237.5" stroke="rgba(246, 128, 10, 1)" stroke-width="4.17"></path><path d="M306.25 237.5 a6.25 6.25 0 1 0 12.5 0 a6.25 6.25 0 1 0 -12.5 0zM81.25 262.5 a6.25 6.25 0 1 0 12.5 0 a6.25 6.25 0 1 0 -12.5 0zM356.25 262.5 a6.25 6.25 0 1 0 12.5 0 a6.25 6.25 0 1 0 -12.5 0zM206.25 262.5 a6.25 6.25 0 1 0 12.5 0 a6.25 6.25 0 1 0 -12.5 0z" fill="rgba(246, 128, 10, 1)"></path><path d="M-12.5 87.5L12.5 62.5" stroke="rgba(246, 128, 10, 1)" stroke-width="4.17"></path><path d="M6.25 62.5 a6.25 6.25 0 1 0 12.5 0 a6.25 6.25 0 1 0 -12.5 0z" fill="rgba(246, 128, 10, 1)"></path></g></g><defs><mask id="SvgjsMask1448"><rect width="1440" height="337" fill="#ffffff"></rect></mask><mask id="SvgjsMask1449"><rect width="1440" height="337" fill="white"></rect><path d="M534.37 162.5 a3.13 3.13 0 1 0 6.26 0 a3.13 3.13 0 1 0 -6.26 0zM234.37 137.5 a3.13 3.13 0 1 0 6.26 0 a3.13 3.13 0 1 0 -6.26 0zM359.37 187.5 a3.13 3.13 0 1 0 6.26 0 a3.13 3.13 0 1 0 -6.26 0zM409.37 137.5 a3.13 3.13 0 1 0 6.26 0 a3.13 3.13 0 1 0 -6.26 0zM284.37 212.5 a3.13 3.13 0 1 0 6.26 0 a3.13 3.13 0 1 0 -6.26 0zM234.37 212.5 a3.13 3.13 0 1 0 6.26 0 a3.13 3.13 0 1 0 -6.26 0z" fill="black"></path><path d="M84.37 187.5 a3.13 3.13 0 1 0 6.26 0 a3.13 3.13 0 1 0 -6.26 0zM134.37 212.5 a3.13 3.13 0 1 0 6.26 0 a3.13 3.13 0 1 0 -6.26 0z" fill="black"></path><path d="M584.37 87.5 a3.13 3.13 0 1 0 6.26 0 a3.13 3.13 0 1 0 -6.26 0zM284.37 87.5 a3.13 3.13 0 1 0 6.26 0 a3.13 3.13 0 1 0 -6.26 0zM584.37 62.5 a3.13 3.13 0 1 0 6.26 0 a3.13 3.13 0 1 0 -6.26 0zM659.37 112.5 a3.13 3.13 0 1 0 6.26 0 a3.13 3.13 0 1 0 -6.26 0zM484.37 112.5 a3.13 3.13 0 1 0 6.26 0 a3.13 3.13 0 1 0 -6.26 0zM634.37 137.5 a3.13 3.13 0 1 0 6.26 0 a3.13 3.13 0 1 0 -6.26 0zM459.37 62.5 a3.13 3.13 0 1 0 6.26 0 a3.13 3.13 0 1 0 -6.26 0z" fill="black"></path><path d="M259.37 62.5 a3.13 3.13 0 1 0 6.26 0 a3.13 3.13 0 1 0 -6.26 0zM209.37 62.5 a3.13 3.13 0 1 0 6.26 0 a3.13 3.13 0 1 0 -6.26 0zM134.37 62.5 a3.13 3.13 0 1 0 6.26 0 a3.13 3.13 0 1 0 -6.26 0zM184.37 62.5 a3.13 3.13 0 1 0 6.26 0 a3.13 3.13 0 1 0 -6.26 0z" fill="black"></path><path d="M309.37 237.5 a3.13 3.13 0 1 0 6.26 0 a3.13 3.13 0 1 0 -6.26 0zM84.37 262.5 a3.13 3.13 0 1 0 6.26 0 a3.13 3.13 0 1 0 -6.26 0zM359.37 262.5 a3.13 3.13 0 1 0 6.26 0 a3.13 3.13 0 1 0 -6.26 0zM209.37 262.5 a3.13 3.13 0 1 0 6.26 0 a3.13 3.13 0 1 0 -6.26 0z" fill="black"></path><path d="M9.37 62.5 a3.13 3.13 0 1 0 6.26 0 a3.13 3.13 0 1 0 -6.26 0z" fill="black"></path></mask></defs></svg>